<svg width="20" height="20" viewBox="0 0 20 20" fill="none" xmlns="http://www.w3.org/2000/svg">
<path d="M10 0C4.47768 0 0 4.47768 0 10C0 15.5223 4.47768 20 10 20C15.5223 20 20 15.5223 20 10C20 4.47768 15.5223 0 10 0ZM8.21429 13.3929C8.21429 13.4911 8.13393 13.5714 8.03571 13.5714H6.96429C6.86607 13.5714 6.78571 13.4911 6.78571 13.3929V6.60714C6.78571 6.50893 6.86607 6.42857 6.96429 6.42857H8.03571C8.13393 6.42857 8.21429 6.50893 8.21429 6.60714V13.3929ZM13.2143 13.3929C13.2143 13.4911 13.1339 13.5714 13.0357 13.5714H11.9643C11.8661 13.5714 11.7857 13.4911 11.7857 13.3929V6.60714C11.7857 6.50893 11.8661 6.42857 11.9643 6.42857H13.0357C13.1339 6.42857 13.2143 6.50893 13.2143 6.60714V13.3929Z" fill="#2D394C"/>
</svg>
